<svg width="95" height="95" viewBox="0 0 95 95" fill="none" xmlns="http://www.w3.org/2000/svg">
<rect width="95" height="95" fill="white"/>
<path d="M74.682 42.09C74.682 40.935 73.746 40 72.595 40C71.439 40 70.505 40.935 70.505 42.09V44.342H74.682V42.09Z" fill="#C5192D"/>
<path d="M71.023 75.321H70.5041L72.5941 82.623L74.6811 75.321H74.162H74.6811V45.9771H74.162H73.6431H73.0941H72.0541H71.5421H71.023H70.5031V75.321H71.023Z" fill="#C5192D"/>
<path d="M41.4249 53.1198L23.7679 42.9248V75.9058L41.4249 81.2338V53.1198Z" fill="#C5192D"/>
<path d="M43.366 53.1868V81.2448L61.139 75.9018V42.9258L43.366 53.1868Z" fill="#C5192D"/>
<path d="M64.931 44.3412L63.038 42.8462V76.8012L43.419 83.1402H42.512H42.332H41.425L21.893 77.6842V42.8462L20 44.3412V79.0122L41.336 84.9182H42.332H42.512H43.508L63.191 78.6682L64.931 78.1572V44.3412Z" fill="#C5192D"/>
<path d="M28.5742 14.9336C28.7096 15.1445 28.9531 15.25 29.3047 15.25C29.6562 15.25 29.8984 15.1445 30.0312 14.9336C30.1667 14.7227 30.2344 14.4115 30.2344 14V10.9609C30.2344 10.5547 30.168 10.2513 30.0352 10.0508C29.9023 9.85026 29.6589 9.75 29.3047 9.75C28.9505 9.75 28.707 9.85026 28.5742 10.0508C28.4414 10.2513 28.375 10.5547 28.375 10.9609V14C28.375 14.4115 28.4414 14.7227 28.5742 14.9336ZM31.1523 17C30.8685 17 30.5859 16.901 30.3047 16.7031C30.026 16.5052 29.8229 16.2852 29.6953 16.043C29.5833 16.0612 29.4531 16.0703 29.3047 16.0703C28.9531 16.0703 28.651 16.0169 28.3984 15.9102C28.1484 15.8034 27.9492 15.6471 27.8008 15.4414C27.6523 15.2357 27.5443 14.9948 27.4766 14.7188C27.4089 14.4401 27.375 14.1172 27.375 13.75V11.2109C27.375 10.8438 27.4089 10.5234 27.4766 10.25C27.5443 9.97656 27.6523 9.73958 27.8008 9.53906C27.9492 9.33594 28.1484 9.18359 28.3984 9.08203C28.651 8.98047 28.9531 8.92969 29.3047 8.92969C29.987 8.92969 30.4792 9.125 30.7812 9.51562C31.0833 9.90625 31.2344 10.4714 31.2344 11.2109V13.75C31.2344 14.7812 30.9544 15.4674 30.3945 15.8086C30.4701 15.918 30.5833 16.0065 30.7344 16.0742C30.888 16.1445 31.0273 16.1797 31.1523 16.1797V17ZM34.8594 15.9531C34.6276 16.0339 34.3594 16.0742 34.0547 16.0742C33.75 16.0742 33.4818 16.0339 33.25 15.9531C33.0182 15.8724 32.8268 15.7604 32.6758 15.6172C32.5273 15.4714 32.4062 15.2891 32.3125 15.0703C32.2188 14.8516 32.1523 14.6159 32.1133 14.3633C32.0742 14.1081 32.0547 13.8203 32.0547 13.5V9H33.0547V13.5C33.0547 13.7161 33.0586 13.8971 33.0664 14.043C33.0768 14.1888 33.1016 14.3451 33.1406 14.5117C33.1797 14.6758 33.2331 14.8073 33.3008 14.9062C33.3711 15.0052 33.4688 15.0872 33.5938 15.1523C33.7214 15.2174 33.875 15.25 34.0547 15.25C34.2344 15.25 34.3867 15.2174 34.5117 15.1523C34.6393 15.0872 34.737 15.0052 34.8047 14.9062C34.875 14.8073 34.9297 14.6758 34.9688 14.5117C35.0078 14.3451 35.0312 14.1888 35.0391 14.043C35.0495 13.8971 35.0547 13.7161 35.0547 13.5V9H36.0547V13.5C36.0547 13.8203 36.0352 14.1081 35.9961 14.3633C35.957 14.6159 35.8906 14.8516 35.7969 15.0703C35.7031 15.2891 35.5807 15.4714 35.4297 15.6172C35.2812 15.7604 35.0911 15.8724 34.8594 15.9531ZM38.0078 13.5H39.0078L38.5078 10.5L38.0078 13.5ZM36.5078 16L38.0078 9H39.0078L40.5078 16H39.5078L39.1328 14.25H37.8828L37.5078 16H36.5078ZM41.0703 16V9H42.0703V15.25H43.8203V16H41.0703ZM44.3359 16V9H45.3359V16H44.3359ZM47.1523 16V9.89062H45.9023V9H49.4023V9.89062H48.1523V16H47.1523ZM50.8867 16V13.75L49.3867 9H50.3867L51.3867 12.5L52.3867 9H53.3867L51.8867 13.75V16H50.8867ZM27.5 26V19H30.25V19.75H28.5V22H29.75V22.75H28.5V25.25H30.25V26H27.5ZM30.8672 26V19H32.418C33.1497 19 33.6654 19.1497 33.9648 19.4492C34.2669 19.7487 34.418 20.2656 34.418 21V23.75C34.418 24.5182 34.2643 25.0859 33.957 25.4531C33.6523 25.8177 33.1367 26 32.4102 26H30.8672ZM31.8672 25.25H32.418C32.582 25.25 32.7227 25.2357 32.8398 25.207C32.957 25.1758 33.0521 25.1211 33.125 25.043C33.1979 24.9622 33.2552 24.8867 33.2969 24.8164C33.3385 24.7435 33.3672 24.6315 33.3828 24.4805C33.401 24.3294 33.4115 24.2057 33.4141 24.1094C33.4167 24.0104 33.418 23.8581 33.418 23.6523C33.418 23.5846 33.418 23.5339 33.418 23.5V21.25C33.418 21.1224 33.4167 21.0208 33.4141 20.9453C33.4141 20.8698 33.4102 20.7812 33.4023 20.6797C33.3971 20.5755 33.388 20.4935 33.375 20.4336C33.362 20.3737 33.3438 20.3073 33.3203 20.2344C33.2969 20.1589 33.2669 20.1003 33.2305 20.0586C33.1966 20.0169 33.1536 19.974 33.1016 19.9297C33.0521 19.8828 32.9935 19.849 32.9258 19.8281C32.8607 19.8047 32.7839 19.7865 32.6953 19.7734C32.6068 19.7578 32.5078 19.75 32.3984 19.75H31.8672V25.25ZM38.0469 25.9531C37.8151 26.0339 37.5469 26.0742 37.2422 26.0742C36.9375 26.0742 36.6693 26.0339 36.4375 25.9531C36.2057 25.8724 36.0143 25.7604 35.8633 25.6172C35.7148 25.4714 35.5938 25.2891 35.5 25.0703C35.4062 24.8516 35.3398 24.6159 35.3008 24.3633C35.2617 24.1081 35.2422 23.8203 35.2422 23.5V19H36.2422V23.5C36.2422 23.7161 36.2461 23.8971 36.2539 24.043C36.2643 24.1888 36.2891 24.3451 36.3281 24.5117C36.3672 24.6758 36.4206 24.8073 36.4883 24.9062C36.5586 25.0052 36.6562 25.0872 36.7812 25.1523C36.9089 25.2174 37.0625 25.25 37.2422 25.25C37.4219 25.25 37.5742 25.2174 37.6992 25.1523C37.8268 25.0872 37.9245 25.0052 37.9922 24.9062C38.0625 24.8073 38.1172 24.6758 38.1562 24.5117C38.1953 24.3451 38.2188 24.1888 38.2266 24.043C38.237 23.8971 38.2422 23.7161 38.2422 23.5V19H39.2422V23.5C39.2422 23.8203 39.2227 24.1081 39.1836 24.3633C39.1445 24.6159 39.0781 24.8516 38.9844 25.0703C38.8906 25.2891 38.7682 25.4714 38.6172 25.6172C38.4688 25.7604 38.2786 25.8724 38.0469 25.9531ZM41.9844 26.0703C41.6901 26.0703 41.431 26.0286 41.207 25.9453C40.9831 25.862 40.7995 25.7474 40.6562 25.6016C40.513 25.4531 40.3958 25.2695 40.3047 25.0508C40.2161 24.8294 40.1536 24.5938 40.1172 24.3438C40.0807 24.0938 40.0625 23.8112 40.0625 23.4961V21.5C40.0625 21.1849 40.0807 20.9023 40.1172 20.6523C40.1536 20.4023 40.2161 20.168 40.3047 19.9492C40.3958 19.7279 40.513 19.5443 40.6562 19.3984C40.7995 19.2526 40.9831 19.138 41.207 19.0547C41.431 18.9714 41.6901 18.9297 41.9844 18.9297C42.3099 18.9297 42.5911 18.9779 42.8281 19.0742C43.0651 19.1706 43.2539 19.3125 43.3945 19.5C43.5378 19.6875 43.6445 19.9049 43.7148 20.1523C43.7878 20.3997 43.8307 20.6888 43.8438 21.0195C43.8464 21.069 43.8477 21.1458 43.8477 21.25H42.8477V21.0273C42.8451 20.8893 42.8398 20.7721 42.832 20.6758C42.8242 20.5768 42.8099 20.4753 42.7891 20.3711C42.7682 20.2669 42.737 20.181 42.6953 20.1133C42.6562 20.043 42.6055 19.9792 42.543 19.9219C42.4831 19.862 42.4062 19.819 42.3125 19.793C42.2188 19.7643 42.1094 19.75 41.9844 19.75C41.8229 19.75 41.6836 19.776 41.5664 19.8281C41.4518 19.8802 41.362 19.9479 41.2969 20.0312C41.2318 20.112 41.181 20.2214 41.1445 20.3594C41.1107 20.4974 41.0885 20.6328 41.0781 20.7656C41.0677 20.8958 41.0625 21.0573 41.0625 21.25V23.75C41.0625 23.9167 41.069 24.0677 41.082 24.2031C41.0977 24.3385 41.1263 24.474 41.168 24.6094C41.2096 24.7422 41.263 24.8542 41.3281 24.9453C41.3958 25.0365 41.4844 25.1107 41.5938 25.168C41.7057 25.2227 41.8359 25.25 41.9844 25.25C42.1328 25.25 42.2604 25.2214 42.3672 25.1641C42.474 25.1068 42.5573 25.0339 42.6172 24.9453C42.6797 24.8568 42.7279 24.7435 42.7617 24.6055C42.7982 24.4674 42.8216 24.3333 42.832 24.2031C42.8424 24.0729 42.8477 23.9219 42.8477 23.75V23.5H43.8477V23.75C43.8477 24.112 43.8151 24.4297 43.75 24.7031C43.6875 24.9766 43.5846 25.2188 43.4414 25.4297C43.3008 25.638 43.1081 25.7969 42.8633 25.9062C42.6211 26.0156 42.3281 26.0703 41.9844 26.0703ZM45.5781 23.5H46.5781L46.0781 20.5L45.5781 23.5ZM44.0781 26L45.5781 19H46.5781L48.0781 26H47.0781L46.7031 24.25H45.4531L45.0781 26H44.0781ZM49.1914 26V19.8906H47.9414V19H51.4414V19.8906H50.1914V26H49.1914ZM51.9844 26V19H52.9844V26H51.9844ZM55.8594 26.0703C55.5078 26.0703 55.2057 26.0169 54.9531 25.9102C54.7031 25.8034 54.5039 25.6471 54.3555 25.4414C54.207 25.2357 54.099 24.9948 54.0312 24.7188C53.9635 24.4401 53.9297 24.1172 53.9297 23.75V21.2109C53.9297 20.8438 53.9635 20.5234 54.0312 20.25C54.099 19.9766 54.207 19.7396 54.3555 19.5391C54.5039 19.3359 54.7031 19.1836 54.9531 19.082C55.2057 18.9805 55.5078 18.9297 55.8594 18.9297C56.5417 18.9297 57.0339 19.125 57.3359 19.5156C57.638 19.9062 57.7891 20.4714 57.7891 21.2109V23.75C57.7891 24.112 57.7539 24.4323 57.6836 24.7109C57.6159 24.987 57.5078 25.2292 57.3594 25.4375C57.2109 25.6432 57.0104 25.8008 56.7578 25.9102C56.5078 26.0169 56.2083 26.0703 55.8594 26.0703ZM55.1289 24.9336C55.2643 25.1445 55.5078 25.25 55.8594 25.25C56.2109 25.25 56.4531 25.1445 56.5859 24.9336C56.7214 24.7227 56.7891 24.4115 56.7891 24V20.9609C56.7891 20.5547 56.7227 20.2513 56.5898 20.0508C56.457 19.8503 56.2135 19.75 55.8594 19.75C55.5052 19.75 55.2617 19.8503 55.1289 20.0508C54.9961 20.2513 54.9297 20.5547 54.9297 20.9609V24C54.9297 24.4115 54.9961 24.7227 55.1289 24.9336ZM58.6641 26V19H59.4141L61.1641 23.3281V19H62.1641V26H61.4531L59.6641 21.3438V26H58.6641Z" fill="#C5192D"/>
<path d="M13.4761 18.8018H16.1011V10.9062L13.4761 18.8018ZM16.1011 26V21.2832H10.8511V18.3608L15.4448 7.61475H18.7261V18.8018H20.7563V21.2832H18.7261V26H16.1011Z" fill="#C5192D"/>
</svg>
